<mxfile host="app.diagrams.net" agent="Mozilla/5.0 (Windows NT 10.0; Win64; x64) AppleWebKit/537.36 (KHTML, like Gecko) Chrome/129.0.0.0 Safari/537.36" version="24.7.16">
  <diagram id="C5RBs43oDa-KdzZeNtuy" name="Page-1">
    <mxGraphModel dx="1235" dy="1014" grid="0" gridSize="10" guides="1" tooltips="1" connect="1" arrows="1" fold="1" page="0" pageScale="1" pageWidth="827" pageHeight="1169" math="0" shadow="0">
      <root>
        <mxCell id="WIyWlLk6GJQsqaUBKTNV-0" />
        <mxCell id="WIyWlLk6GJQsqaUBKTNV-1" parent="WIyWlLk6GJQsqaUBKTNV-0" />
        <mxCell id="B28y8TU0nK1EVPIYwgX0-26" value="" style="edgeStyle=orthogonalEdgeStyle;rounded=0;orthogonalLoop=1;jettySize=auto;html=1;" parent="WIyWlLk6GJQsqaUBKTNV-1" source="WIyWlLk6GJQsqaUBKTNV-3" target="B28y8TU0nK1EVPIYwgX0-25" edge="1">
          <mxGeometry relative="1" as="geometry" />
        </mxCell>
        <mxCell id="WIyWlLk6GJQsqaUBKTNV-3" value="Site Entry" style="rounded=1;whiteSpace=wrap;html=1;fontSize=12;glass=0;strokeWidth=1;shadow=0;" parent="WIyWlLk6GJQsqaUBKTNV-1" vertex="1">
          <mxGeometry x="152" y="79" width="120" height="40" as="geometry" />
        </mxCell>
        <mxCell id="B28y8TU0nK1EVPIYwgX0-15" style="edgeStyle=orthogonalEdgeStyle;rounded=0;orthogonalLoop=1;jettySize=auto;html=1;entryX=0.5;entryY=0;entryDx=0;entryDy=0;" parent="WIyWlLk6GJQsqaUBKTNV-1" source="WIyWlLk6GJQsqaUBKTNV-6" target="WIyWlLk6GJQsqaUBKTNV-7" edge="1">
          <mxGeometry relative="1" as="geometry" />
        </mxCell>
        <mxCell id="B28y8TU0nK1EVPIYwgX0-21" value="" style="edgeStyle=orthogonalEdgeStyle;rounded=0;orthogonalLoop=1;jettySize=auto;html=1;" parent="WIyWlLk6GJQsqaUBKTNV-1" source="WIyWlLk6GJQsqaUBKTNV-6" target="WIyWlLk6GJQsqaUBKTNV-11" edge="1">
          <mxGeometry relative="1" as="geometry" />
        </mxCell>
        <mxCell id="WIyWlLk6GJQsqaUBKTNV-6" value="IS Logged In?" style="rhombus;whiteSpace=wrap;html=1;shadow=0;fontFamily=Helvetica;fontSize=12;align=center;strokeWidth=1;spacing=6;spacingTop=-4;" parent="WIyWlLk6GJQsqaUBKTNV-1" vertex="1">
          <mxGeometry x="162" y="425" width="100" height="80" as="geometry" />
        </mxCell>
        <mxCell id="WIyWlLk6GJQsqaUBKTNV-7" value="View Mode" style="rounded=1;whiteSpace=wrap;html=1;fontSize=12;glass=0;strokeWidth=1;shadow=0;" parent="WIyWlLk6GJQsqaUBKTNV-1" vertex="1">
          <mxGeometry x="152" y="564" width="120" height="40" as="geometry" />
        </mxCell>
        <mxCell id="B28y8TU0nK1EVPIYwgX0-12" style="edgeStyle=orthogonalEdgeStyle;rounded=0;orthogonalLoop=1;jettySize=auto;html=1;entryX=0.5;entryY=0;entryDx=0;entryDy=0;" parent="WIyWlLk6GJQsqaUBKTNV-1" source="WIyWlLk6GJQsqaUBKTNV-10" target="WIyWlLk6GJQsqaUBKTNV-6" edge="1">
          <mxGeometry relative="1" as="geometry" />
        </mxCell>
        <mxCell id="B28y8TU0nK1EVPIYwgX0-22" value="" style="edgeStyle=orthogonalEdgeStyle;rounded=0;orthogonalLoop=1;jettySize=auto;html=1;" parent="WIyWlLk6GJQsqaUBKTNV-1" source="WIyWlLk6GJQsqaUBKTNV-10" target="WIyWlLk6GJQsqaUBKTNV-12" edge="1">
          <mxGeometry relative="1" as="geometry" />
        </mxCell>
        <mxCell id="WIyWlLk6GJQsqaUBKTNV-10" value="IS Author?" style="rhombus;whiteSpace=wrap;html=1;shadow=0;fontFamily=Helvetica;fontSize=12;align=center;strokeWidth=1;spacing=6;spacingTop=-4;" parent="WIyWlLk6GJQsqaUBKTNV-1" vertex="1">
          <mxGeometry x="162" y="290" width="100" height="80" as="geometry" />
        </mxCell>
        <mxCell id="WIyWlLk6GJQsqaUBKTNV-11" value="Only allowed to review Blogs, Share expirence and like&amp;nbsp;" style="rounded=1;whiteSpace=wrap;html=1;fontSize=12;glass=0;strokeWidth=1;shadow=0;" parent="WIyWlLk6GJQsqaUBKTNV-1" vertex="1">
          <mxGeometry x="338" y="435" width="154" height="60" as="geometry" />
        </mxCell>
        <mxCell id="WIyWlLk6GJQsqaUBKTNV-12" value="Can upload edit and delete their Post" style="rounded=1;whiteSpace=wrap;html=1;fontSize=12;glass=0;strokeWidth=1;shadow=0;" parent="WIyWlLk6GJQsqaUBKTNV-1" vertex="1">
          <mxGeometry x="320" y="310" width="120" height="40" as="geometry" />
        </mxCell>
        <mxCell id="B28y8TU0nK1EVPIYwgX0-8" style="edgeStyle=orthogonalEdgeStyle;rounded=0;orthogonalLoop=1;jettySize=auto;html=1;entryX=0.5;entryY=0;entryDx=0;entryDy=0;" parent="WIyWlLk6GJQsqaUBKTNV-1" target="WIyWlLk6GJQsqaUBKTNV-10" edge="1">
          <mxGeometry relative="1" as="geometry">
            <mxPoint x="212" y="237" as="sourcePoint" />
          </mxGeometry>
        </mxCell>
        <mxCell id="B28y8TU0nK1EVPIYwgX0-4" value="Can acess every Post and delete post.&lt;div&gt;Cannot Edit others post&lt;/div&gt;" style="whiteSpace=wrap;html=1;rounded=1;glass=0;strokeWidth=1;shadow=0;" parent="WIyWlLk6GJQsqaUBKTNV-1" vertex="1">
          <mxGeometry x="305" y="169" width="257" height="58" as="geometry" />
        </mxCell>
        <mxCell id="B28y8TU0nK1EVPIYwgX0-10" value="Yes" style="text;html=1;align=center;verticalAlign=middle;whiteSpace=wrap;rounded=0;" parent="WIyWlLk6GJQsqaUBKTNV-1" vertex="1">
          <mxGeometry x="252" y="172" width="60" height="30" as="geometry" />
        </mxCell>
        <mxCell id="B28y8TU0nK1EVPIYwgX0-11" value="No" style="text;html=1;align=center;verticalAlign=middle;whiteSpace=wrap;rounded=0;" parent="WIyWlLk6GJQsqaUBKTNV-1" vertex="1">
          <mxGeometry x="202" y="249" width="60" height="30" as="geometry" />
        </mxCell>
        <mxCell id="B28y8TU0nK1EVPIYwgX0-19" value="No" style="text;html=1;align=center;verticalAlign=middle;whiteSpace=wrap;rounded=0;" parent="WIyWlLk6GJQsqaUBKTNV-1" vertex="1">
          <mxGeometry x="197" y="383" width="60" height="30" as="geometry" />
        </mxCell>
        <mxCell id="B28y8TU0nK1EVPIYwgX0-20" value="No" style="text;html=1;align=center;verticalAlign=middle;whiteSpace=wrap;rounded=0;" parent="WIyWlLk6GJQsqaUBKTNV-1" vertex="1">
          <mxGeometry x="197" y="519" width="60" height="30" as="geometry" />
        </mxCell>
        <mxCell id="B28y8TU0nK1EVPIYwgX0-23" value="Yes" style="text;html=1;align=center;verticalAlign=middle;whiteSpace=wrap;rounded=0;" parent="WIyWlLk6GJQsqaUBKTNV-1" vertex="1">
          <mxGeometry x="255" y="306" width="60" height="30" as="geometry" />
        </mxCell>
        <mxCell id="B28y8TU0nK1EVPIYwgX0-24" value="Yes" style="text;html=1;align=center;verticalAlign=middle;whiteSpace=wrap;rounded=0;" parent="WIyWlLk6GJQsqaUBKTNV-1" vertex="1">
          <mxGeometry x="260" y="442" width="60" height="30" as="geometry" />
        </mxCell>
        <mxCell id="B28y8TU0nK1EVPIYwgX0-25" value="Is Admin?" style="rhombus;whiteSpace=wrap;html=1;" parent="WIyWlLk6GJQsqaUBKTNV-1" vertex="1">
          <mxGeometry x="172" y="165" width="80" height="80" as="geometry" />
        </mxCell>
        <mxCell id="B28y8TU0nK1EVPIYwgX0-29" style="edgeStyle=orthogonalEdgeStyle;rounded=0;orthogonalLoop=1;jettySize=auto;html=1;entryX=0.005;entryY=0.608;entryDx=0;entryDy=0;entryPerimeter=0;" parent="WIyWlLk6GJQsqaUBKTNV-1" source="B28y8TU0nK1EVPIYwgX0-25" target="B28y8TU0nK1EVPIYwgX0-4" edge="1">
          <mxGeometry relative="1" as="geometry" />
        </mxCell>
        <mxCell id="dagdnDmEvCiVqhG5n2yH-6" value="" style="edgeStyle=orthogonalEdgeStyle;rounded=0;orthogonalLoop=1;jettySize=auto;html=1;" edge="1" parent="WIyWlLk6GJQsqaUBKTNV-1" source="dagdnDmEvCiVqhG5n2yH-0" target="dagdnDmEvCiVqhG5n2yH-5">
          <mxGeometry relative="1" as="geometry">
            <Array as="points">
              <mxPoint x="1224" y="10" />
              <mxPoint x="1406" y="10" />
            </Array>
          </mxGeometry>
        </mxCell>
        <mxCell id="dagdnDmEvCiVqhG5n2yH-8" value="" style="edgeStyle=orthogonalEdgeStyle;rounded=0;orthogonalLoop=1;jettySize=auto;html=1;" edge="1" parent="WIyWlLk6GJQsqaUBKTNV-1" source="dagdnDmEvCiVqhG5n2yH-0" target="dagdnDmEvCiVqhG5n2yH-7">
          <mxGeometry relative="1" as="geometry">
            <Array as="points">
              <mxPoint x="1224" y="10" />
              <mxPoint x="1026" y="10" />
            </Array>
          </mxGeometry>
        </mxCell>
        <mxCell id="dagdnDmEvCiVqhG5n2yH-0" value="Start" style="ellipse;whiteSpace=wrap;html=1;" vertex="1" parent="WIyWlLk6GJQsqaUBKTNV-1">
          <mxGeometry x="1179.5" y="-46" width="89" height="34" as="geometry" />
        </mxCell>
        <mxCell id="dagdnDmEvCiVqhG5n2yH-48" value="" style="edgeStyle=orthogonalEdgeStyle;rounded=0;orthogonalLoop=1;jettySize=auto;html=1;" edge="1" parent="WIyWlLk6GJQsqaUBKTNV-1" source="dagdnDmEvCiVqhG5n2yH-5" target="dagdnDmEvCiVqhG5n2yH-47">
          <mxGeometry relative="1" as="geometry" />
        </mxCell>
        <mxCell id="dagdnDmEvCiVqhG5n2yH-5" value="Admin" style="whiteSpace=wrap;html=1;" vertex="1" parent="WIyWlLk6GJQsqaUBKTNV-1">
          <mxGeometry x="1346" y="34" width="120" height="30" as="geometry" />
        </mxCell>
        <mxCell id="dagdnDmEvCiVqhG5n2yH-10" value="" style="edgeStyle=orthogonalEdgeStyle;rounded=0;orthogonalLoop=1;jettySize=auto;html=1;" edge="1" parent="WIyWlLk6GJQsqaUBKTNV-1" source="dagdnDmEvCiVqhG5n2yH-7" target="dagdnDmEvCiVqhG5n2yH-9">
          <mxGeometry relative="1" as="geometry" />
        </mxCell>
        <mxCell id="dagdnDmEvCiVqhG5n2yH-7" value="User" style="whiteSpace=wrap;html=1;" vertex="1" parent="WIyWlLk6GJQsqaUBKTNV-1">
          <mxGeometry x="971" y="37" width="120" height="30" as="geometry" />
        </mxCell>
        <mxCell id="dagdnDmEvCiVqhG5n2yH-12" value="" style="edgeStyle=orthogonalEdgeStyle;rounded=0;orthogonalLoop=1;jettySize=auto;html=1;" edge="1" parent="WIyWlLk6GJQsqaUBKTNV-1" source="dagdnDmEvCiVqhG5n2yH-9" target="dagdnDmEvCiVqhG5n2yH-11">
          <mxGeometry relative="1" as="geometry" />
        </mxCell>
        <mxCell id="dagdnDmEvCiVqhG5n2yH-30" style="edgeStyle=orthogonalEdgeStyle;rounded=0;orthogonalLoop=1;jettySize=auto;html=1;entryX=0;entryY=0.5;entryDx=0;entryDy=0;" edge="1" parent="WIyWlLk6GJQsqaUBKTNV-1" target="dagdnDmEvCiVqhG5n2yH-28">
          <mxGeometry relative="1" as="geometry">
            <mxPoint x="1033" y="310" as="sourcePoint" />
            <Array as="points">
              <mxPoint x="1033" y="391" />
            </Array>
          </mxGeometry>
        </mxCell>
        <mxCell id="dagdnDmEvCiVqhG5n2yH-33" style="edgeStyle=orthogonalEdgeStyle;rounded=0;orthogonalLoop=1;jettySize=auto;html=1;entryX=0;entryY=0.5;entryDx=0;entryDy=0;" edge="1" parent="WIyWlLk6GJQsqaUBKTNV-1" target="dagdnDmEvCiVqhG5n2yH-31">
          <mxGeometry relative="1" as="geometry">
            <mxPoint x="1033" y="310" as="sourcePoint" />
            <Array as="points">
              <mxPoint x="1033" y="435" />
            </Array>
          </mxGeometry>
        </mxCell>
        <mxCell id="dagdnDmEvCiVqhG5n2yH-35" style="edgeStyle=orthogonalEdgeStyle;rounded=0;orthogonalLoop=1;jettySize=auto;html=1;entryX=0;entryY=0.5;entryDx=0;entryDy=0;" edge="1" parent="WIyWlLk6GJQsqaUBKTNV-1" target="dagdnDmEvCiVqhG5n2yH-34">
          <mxGeometry relative="1" as="geometry">
            <mxPoint x="1033" y="310" as="sourcePoint" />
            <Array as="points">
              <mxPoint x="1033" y="481" />
            </Array>
          </mxGeometry>
        </mxCell>
        <mxCell id="dagdnDmEvCiVqhG5n2yH-38" style="edgeStyle=orthogonalEdgeStyle;rounded=0;orthogonalLoop=1;jettySize=auto;html=1;entryX=0;entryY=0.5;entryDx=0;entryDy=0;" edge="1" parent="WIyWlLk6GJQsqaUBKTNV-1" target="dagdnDmEvCiVqhG5n2yH-36">
          <mxGeometry relative="1" as="geometry">
            <mxPoint x="1033" y="310" as="sourcePoint" />
            <Array as="points">
              <mxPoint x="1033" y="524" />
            </Array>
          </mxGeometry>
        </mxCell>
        <mxCell id="dagdnDmEvCiVqhG5n2yH-40" style="edgeStyle=orthogonalEdgeStyle;rounded=0;orthogonalLoop=1;jettySize=auto;html=1;entryX=0;entryY=0.5;entryDx=0;entryDy=0;" edge="1" parent="WIyWlLk6GJQsqaUBKTNV-1" target="dagdnDmEvCiVqhG5n2yH-39">
          <mxGeometry relative="1" as="geometry">
            <mxPoint x="1033" y="310" as="sourcePoint" />
            <Array as="points">
              <mxPoint x="1033" y="568" />
            </Array>
          </mxGeometry>
        </mxCell>
        <mxCell id="dagdnDmEvCiVqhG5n2yH-70" value="" style="edgeStyle=orthogonalEdgeStyle;rounded=0;orthogonalLoop=1;jettySize=auto;html=1;" edge="1" parent="WIyWlLk6GJQsqaUBKTNV-1" source="dagdnDmEvCiVqhG5n2yH-9" target="dagdnDmEvCiVqhG5n2yH-69">
          <mxGeometry relative="1" as="geometry" />
        </mxCell>
        <mxCell id="dagdnDmEvCiVqhG5n2yH-9" value="Login" style="rhombus;whiteSpace=wrap;html=1;" vertex="1" parent="WIyWlLk6GJQsqaUBKTNV-1">
          <mxGeometry x="991" y="136" width="80" height="65" as="geometry" />
        </mxCell>
        <mxCell id="dagdnDmEvCiVqhG5n2yH-14" style="edgeStyle=orthogonalEdgeStyle;rounded=0;orthogonalLoop=1;jettySize=auto;html=1;" edge="1" parent="WIyWlLk6GJQsqaUBKTNV-1" source="dagdnDmEvCiVqhG5n2yH-11">
          <mxGeometry relative="1" as="geometry">
            <mxPoint x="1032" y="92" as="targetPoint" />
            <Array as="points">
              <mxPoint x="1162" y="92" />
            </Array>
          </mxGeometry>
        </mxCell>
        <mxCell id="dagdnDmEvCiVqhG5n2yH-45" style="edgeStyle=orthogonalEdgeStyle;rounded=0;orthogonalLoop=1;jettySize=auto;html=1;entryX=0.5;entryY=0;entryDx=0;entryDy=0;" edge="1" parent="WIyWlLk6GJQsqaUBKTNV-1" source="dagdnDmEvCiVqhG5n2yH-11" target="dagdnDmEvCiVqhG5n2yH-41">
          <mxGeometry relative="1" as="geometry">
            <Array as="points">
              <mxPoint x="1224" y="169" />
            </Array>
          </mxGeometry>
        </mxCell>
        <mxCell id="dagdnDmEvCiVqhG5n2yH-11" value="Register" style="rhombus;whiteSpace=wrap;html=1;" vertex="1" parent="WIyWlLk6GJQsqaUBKTNV-1">
          <mxGeometry x="1122" y="136" width="80" height="65" as="geometry" />
        </mxCell>
        <mxCell id="dagdnDmEvCiVqhG5n2yH-15" value="No" style="text;html=1;align=center;verticalAlign=middle;whiteSpace=wrap;rounded=0;" vertex="1" parent="WIyWlLk6GJQsqaUBKTNV-1">
          <mxGeometry x="1076" y="152" width="32" height="14" as="geometry" />
        </mxCell>
        <mxCell id="dagdnDmEvCiVqhG5n2yH-16" value="Yes" style="text;html=1;align=center;verticalAlign=middle;whiteSpace=wrap;rounded=0;" vertex="1" parent="WIyWlLk6GJQsqaUBKTNV-1">
          <mxGeometry x="1129" y="112" width="32" height="14" as="geometry" />
        </mxCell>
        <mxCell id="dagdnDmEvCiVqhG5n2yH-27" value="Yes" style="text;html=1;align=center;verticalAlign=middle;whiteSpace=wrap;rounded=0;" vertex="1" parent="WIyWlLk6GJQsqaUBKTNV-1">
          <mxGeometry x="1033" y="208" width="32" height="14" as="geometry" />
        </mxCell>
        <mxCell id="dagdnDmEvCiVqhG5n2yH-28" value="Post Blogs" style="rounded=0;whiteSpace=wrap;html=1;" vertex="1" parent="WIyWlLk6GJQsqaUBKTNV-1">
          <mxGeometry x="1078" y="377" width="120" height="27" as="geometry" />
        </mxCell>
        <mxCell id="dagdnDmEvCiVqhG5n2yH-31" value="Edit Blogs" style="rounded=0;whiteSpace=wrap;html=1;" vertex="1" parent="WIyWlLk6GJQsqaUBKTNV-1">
          <mxGeometry x="1078" y="422" width="120" height="27" as="geometry" />
        </mxCell>
        <mxCell id="dagdnDmEvCiVqhG5n2yH-34" value="Delete Blogs" style="rounded=0;whiteSpace=wrap;html=1;" vertex="1" parent="WIyWlLk6GJQsqaUBKTNV-1">
          <mxGeometry x="1078" y="468" width="120" height="27" as="geometry" />
        </mxCell>
        <mxCell id="dagdnDmEvCiVqhG5n2yH-36" value="Share Experience" style="rounded=0;whiteSpace=wrap;html=1;" vertex="1" parent="WIyWlLk6GJQsqaUBKTNV-1">
          <mxGeometry x="1078" y="510" width="120" height="27" as="geometry" />
        </mxCell>
        <mxCell id="dagdnDmEvCiVqhG5n2yH-39" value="Review &amp;amp; Like Blogs" style="rounded=0;whiteSpace=wrap;html=1;" vertex="1" parent="WIyWlLk6GJQsqaUBKTNV-1">
          <mxGeometry x="1078" y="554" width="120" height="27" as="geometry" />
        </mxCell>
        <mxCell id="dagdnDmEvCiVqhG5n2yH-59" value="" style="edgeStyle=orthogonalEdgeStyle;rounded=0;orthogonalLoop=1;jettySize=auto;html=1;" edge="1" parent="WIyWlLk6GJQsqaUBKTNV-1" source="dagdnDmEvCiVqhG5n2yH-41" target="dagdnDmEvCiVqhG5n2yH-58">
          <mxGeometry relative="1" as="geometry" />
        </mxCell>
        <mxCell id="dagdnDmEvCiVqhG5n2yH-41" value="Visit Site" style="rounded=0;whiteSpace=wrap;html=1;" vertex="1" parent="WIyWlLk6GJQsqaUBKTNV-1">
          <mxGeometry x="1164" y="636.5" width="120" height="27" as="geometry" />
        </mxCell>
        <mxCell id="dagdnDmEvCiVqhG5n2yH-49" style="edgeStyle=orthogonalEdgeStyle;rounded=0;orthogonalLoop=1;jettySize=auto;html=1;entryX=1;entryY=0.5;entryDx=0;entryDy=0;" edge="1" parent="WIyWlLk6GJQsqaUBKTNV-1" source="dagdnDmEvCiVqhG5n2yH-47" target="dagdnDmEvCiVqhG5n2yH-41">
          <mxGeometry relative="1" as="geometry">
            <Array as="points">
              <mxPoint x="1406" y="650" />
            </Array>
          </mxGeometry>
        </mxCell>
        <mxCell id="dagdnDmEvCiVqhG5n2yH-51" value="" style="edgeStyle=orthogonalEdgeStyle;rounded=0;orthogonalLoop=1;jettySize=auto;html=1;" edge="1" parent="WIyWlLk6GJQsqaUBKTNV-1" source="dagdnDmEvCiVqhG5n2yH-47" target="dagdnDmEvCiVqhG5n2yH-50">
          <mxGeometry relative="1" as="geometry" />
        </mxCell>
        <mxCell id="dagdnDmEvCiVqhG5n2yH-55" value="" style="edgeStyle=orthogonalEdgeStyle;rounded=0;orthogonalLoop=1;jettySize=auto;html=1;" edge="1" parent="WIyWlLk6GJQsqaUBKTNV-1" source="dagdnDmEvCiVqhG5n2yH-47" target="dagdnDmEvCiVqhG5n2yH-54">
          <mxGeometry relative="1" as="geometry">
            <Array as="points">
              <mxPoint x="1406" y="372" />
            </Array>
          </mxGeometry>
        </mxCell>
        <mxCell id="dagdnDmEvCiVqhG5n2yH-57" value="" style="edgeStyle=orthogonalEdgeStyle;rounded=0;orthogonalLoop=1;jettySize=auto;html=1;" edge="1" parent="WIyWlLk6GJQsqaUBKTNV-1" source="dagdnDmEvCiVqhG5n2yH-47" target="dagdnDmEvCiVqhG5n2yH-56">
          <mxGeometry relative="1" as="geometry">
            <Array as="points">
              <mxPoint x="1406" y="435" />
            </Array>
          </mxGeometry>
        </mxCell>
        <mxCell id="dagdnDmEvCiVqhG5n2yH-60" style="edgeStyle=orthogonalEdgeStyle;rounded=0;orthogonalLoop=1;jettySize=auto;html=1;entryX=0;entryY=0.5;entryDx=0;entryDy=0;" edge="1" parent="WIyWlLk6GJQsqaUBKTNV-1" source="dagdnDmEvCiVqhG5n2yH-47" target="dagdnDmEvCiVqhG5n2yH-53">
          <mxGeometry relative="1" as="geometry">
            <Array as="points">
              <mxPoint x="1406" y="306" />
            </Array>
          </mxGeometry>
        </mxCell>
        <mxCell id="dagdnDmEvCiVqhG5n2yH-47" value="Login" style="rhombus;whiteSpace=wrap;html=1;" vertex="1" parent="WIyWlLk6GJQsqaUBKTNV-1">
          <mxGeometry x="1366" y="85" width="80" height="70" as="geometry" />
        </mxCell>
        <mxCell id="dagdnDmEvCiVqhG5n2yH-50" value="All function of Normal Users" style="whiteSpace=wrap;html=1;" vertex="1" parent="WIyWlLk6GJQsqaUBKTNV-1">
          <mxGeometry x="1335" y="224" width="142" height="40" as="geometry" />
        </mxCell>
        <mxCell id="dagdnDmEvCiVqhG5n2yH-53" value="Approve or reject posting request" style="rounded=0;whiteSpace=wrap;html=1;" vertex="1" parent="WIyWlLk6GJQsqaUBKTNV-1">
          <mxGeometry x="1466" y="288" width="120" height="35" as="geometry" />
        </mxCell>
        <mxCell id="dagdnDmEvCiVqhG5n2yH-54" value="Delete other user Post" style="whiteSpace=wrap;html=1;" vertex="1" parent="WIyWlLk6GJQsqaUBKTNV-1">
          <mxGeometry x="1466" y="357" width="120" height="35" as="geometry" />
        </mxCell>
        <mxCell id="dagdnDmEvCiVqhG5n2yH-56" value="Add and Manage blog category" style="whiteSpace=wrap;html=1;" vertex="1" parent="WIyWlLk6GJQsqaUBKTNV-1">
          <mxGeometry x="1466" y="417" width="138" height="40" as="geometry" />
        </mxCell>
        <mxCell id="dagdnDmEvCiVqhG5n2yH-58" value="End" style="ellipse;whiteSpace=wrap;html=1;rounded=0;" vertex="1" parent="WIyWlLk6GJQsqaUBKTNV-1">
          <mxGeometry x="1184" y="717" width="80" height="32.5" as="geometry" />
        </mxCell>
        <mxCell id="dagdnDmEvCiVqhG5n2yH-61" value="No" style="text;html=1;align=center;verticalAlign=middle;whiteSpace=wrap;rounded=0;" vertex="1" parent="WIyWlLk6GJQsqaUBKTNV-1">
          <mxGeometry x="1202" y="155" width="32" height="14" as="geometry" />
        </mxCell>
        <mxCell id="dagdnDmEvCiVqhG5n2yH-72" value="" style="edgeStyle=orthogonalEdgeStyle;rounded=0;orthogonalLoop=1;jettySize=auto;html=1;" edge="1" parent="WIyWlLk6GJQsqaUBKTNV-1" target="dagdnDmEvCiVqhG5n2yH-71">
          <mxGeometry relative="1" as="geometry">
            <mxPoint x="1033.004482758621" y="264" as="sourcePoint" />
            <Array as="points">
              <mxPoint x="1032.97" y="332" />
            </Array>
          </mxGeometry>
        </mxCell>
        <mxCell id="dagdnDmEvCiVqhG5n2yH-73" style="edgeStyle=orthogonalEdgeStyle;rounded=0;orthogonalLoop=1;jettySize=auto;html=1;entryX=0;entryY=0.5;entryDx=0;entryDy=0;" edge="1" parent="WIyWlLk6GJQsqaUBKTNV-1" source="dagdnDmEvCiVqhG5n2yH-69" target="dagdnDmEvCiVqhG5n2yH-41">
          <mxGeometry relative="1" as="geometry">
            <Array as="points">
              <mxPoint x="1032" y="650" />
            </Array>
          </mxGeometry>
        </mxCell>
        <mxCell id="dagdnDmEvCiVqhG5n2yH-69" value="DashBoard" style="whiteSpace=wrap;html=1;" vertex="1" parent="WIyWlLk6GJQsqaUBKTNV-1">
          <mxGeometry x="971" y="235" width="120" height="29" as="geometry" />
        </mxCell>
        <mxCell id="dagdnDmEvCiVqhG5n2yH-71" value="Edit Profile" style="whiteSpace=wrap;html=1;" vertex="1" parent="WIyWlLk6GJQsqaUBKTNV-1">
          <mxGeometry x="1079.97" y="323" width="120" height="29" as="geometry" />
        </mxCell>
      </root>
    </mxGraphModel>
  </diagram>
</mxfile>
